<svg width="270" height="140" viewBox="0 0 270 140" fill="none" xmlns="http://www.w3.org/2000/svg">
<path d="M48.7432 76.6897L38.8104 69.3599C38.053 68.8753 37.9785 68.3163 38.5745 67.6951C38.9702 67.5417 39.3917 67.4658 39.8161 67.4715C40.561 67.546 41.1818 67.5957 41.6536 67.6206C41.8234 67.2719 42.0724 66.9677 42.3807 66.7326C42.689 66.4974 43.0481 66.3378 43.4291 66.2664C44.3743 66.3556 45.2977 66.6034 46.1606 66.9994C47.7251 67.6703 48.7928 68.1175 49.3516 68.2417C50.4762 68.732 51.5458 69.34 52.5425 70.0556C53.8843 70.9313 55.1325 71.9429 56.2673 73.0745L62.1897 77.5842C61.2461 79.3235 64.6729 83.6344 63.7293 85.3737C61.1095 84.5662 54.1069 81.274 51.5119 80.4043C49.6744 79.7832 49.2771 79.572 48.0851 79.162" fill="#DFB995"/>
<mask id="mask0" mask-type="alpha" maskUnits="userSpaceOnUse" x="79" y="31" width="109" height="109">
<path d="M187.939 85.4729C187.83 71.1562 182.056 57.4659 171.881 47.3998C161.706 37.3338 147.96 31.7124 133.651 31.7666C119.343 31.8209 105.639 37.5463 95.5404 47.6892C85.4419 57.8321 79.7719 71.5657 79.7719 85.8829C79.7719 100.2 85.4419 113.934 95.5404 124.077C105.639 134.219 119.343 139.945 133.651 139.999C147.96 140.053 161.706 134.432 171.881 124.366C182.056 114.3 187.83 100.61 187.939 86.2928C187.951 86.0195 187.939 85.7214 187.939 85.4729Z" fill="#99D8E2"/>
</mask>
<g mask="url(#mask0)">
<path d="M187.939 85.4729C187.83 71.1562 182.056 57.4659 171.881 47.3998C161.706 37.3338 147.96 31.7124 133.651 31.7666C119.343 31.8209 105.639 37.5463 95.5404 47.6892C85.4419 57.8321 79.7719 71.5657 79.7719 85.8829C79.7719 100.2 85.4419 113.934 95.5404 124.077C105.639 134.219 119.343 139.945 133.651 139.999C147.96 140.053 161.706 134.432 171.881 124.366C182.056 114.3 187.83 100.61 187.939 86.2928C187.951 86.0195 187.939 85.7214 187.939 85.4729Z" fill="#99D8E2"/>
<path d="M161.731 64.9496C149.886 58.1167 122.645 57.1228 115.792 69.7823C102.432 94.2565 107.324 134.173 107.324 134.173C118.126 140.472 131.585 141.354 137.445 140.708C153.114 138.993 161.756 134.769 172.794 124.098C172.409 119.799 195.639 84.5414 161.731 64.9496Z" fill="url(#paint0_radial)"/>
<path d="M155.734 62.3908C155.734 62.3908 170.423 66.5154 177.76 80.9515C187.147 99.4873 185.21 136.248 155.027 142.907C146.05 144.895 160.577 126.396 162.004 115.116C163.73 101.45 155.052 81.1502 154.257 78.6904L155.734 62.3908Z" fill="#F68622"/>
</g>
<path d="M152.889 55.7937H129.05V61.9558H152.703L152.889 55.7937Z" fill="#D66F27"/>
<path d="M95.4158 73.4094C86.4887 77.7079 76.978 80.6399 67.368 78.267L60.8123 76.6644L59.4217 92.3179C74.2859 101.261 91.7882 104.773 108.949 102.257C113.234 86.7137 121.14 72.4084 132.018 60.5139C125.872 60.489 104.442 69.0736 95.4158 73.4094Z" fill="url(#paint1_radial)"/>
<path d="M120.645 35.1583C120.725 33.6212 121.41 32.1784 122.55 31.1449C123.69 30.1114 125.192 29.5712 126.728 29.6422C126.964 29.6422 129.919 29.6422 130.143 29.6422C133.21 29.928 132.862 32.2387 132.887 35.0589C132.912 37.879 133.321 40.1773 130.304 40.5252C130.056 40.5252 127.064 40.5252 126.803 40.5252C125.28 40.6113 123.783 40.0982 122.632 39.0955C121.482 38.0928 120.769 36.6799 120.645 35.1583Z" fill="url(#paint2_radial)"/>
<path d="M126.107 31.2703C129.659 31.2703 132.539 28.6895 132.539 25.5058C132.539 22.3222 129.659 19.7413 126.107 19.7413C122.555 19.7413 119.676 22.3222 119.676 25.5058C119.676 28.6895 122.555 31.2703 126.107 31.2703Z" fill="#5B463A"/>
<path d="M137.269 11.1314C140.704 11.1314 143.489 8.63957 143.489 5.56571C143.489 2.49185 140.704 0 137.269 0C133.833 0 131.048 2.49185 131.048 5.56571C131.048 8.63957 133.833 11.1314 137.269 11.1314Z" fill="#5B463A"/>
<path d="M130.117 14.9957C133.553 14.9957 136.338 12.5038 136.338 9.42994C136.338 6.35608 133.553 3.86423 130.117 3.86423C126.682 3.86423 123.897 6.35608 123.897 9.42994C123.897 12.5038 126.682 14.9957 130.117 14.9957Z" fill="#5B463A"/>
<path d="M125.76 21.8168C129.196 21.8168 131.981 19.3249 131.981 16.2511C131.981 13.1772 129.196 10.6854 125.76 10.6854C122.325 10.6854 119.54 13.1772 119.54 16.2511C119.54 19.3249 122.325 21.8168 125.76 21.8168Z" fill="#5B463A"/>
<path d="M144.707 11.3544C148.143 11.3544 150.928 8.86254 150.928 5.78868C150.928 2.71482 148.143 0.222969 144.707 0.222969C141.272 0.222969 138.487 2.71482 138.487 5.78868C138.487 8.86254 141.272 11.3544 144.707 11.3544Z" fill="#5B463A"/>
<path d="M141.69 4.29816H143.105C147.258 4.29816 151.24 5.94868 154.176 8.88662C157.112 11.8246 158.762 15.8093 158.762 19.9641V31.2819C158.762 33.0678 158.053 34.7805 156.791 36.0432C155.529 37.306 153.817 38.0154 152.032 38.0154H132.775C130.99 38.0154 129.279 37.306 128.017 36.0432C126.755 34.7805 126.046 33.0678 126.046 31.2819V19.9641C126.046 15.8114 127.693 11.8286 130.627 8.89101C133.56 5.95342 137.54 4.30145 141.69 4.29816Z" fill="#5B463A"/>
<path d="M132.017 60.9994V38.6371H148.965V60.7136L132.017 60.9994Z" fill="url(#paint3_linear)"/>
<path d="M142.67 10.4984H136.462C129.18 10.4984 123.276 16.4054 123.276 23.6921V41.7931C123.276 49.0798 129.18 54.9868 136.462 54.9868H142.67C149.952 54.9868 155.856 49.0798 155.856 41.7931V23.6921C155.856 16.4054 149.952 10.4984 142.67 10.4984Z" fill="#DFB995"/>
<path d="M144.315 31.7173C144.322 30.4617 143.778 29.4408 143.099 29.437C142.42 29.4332 141.864 30.448 141.857 31.7036C141.85 32.9592 142.395 33.9801 143.073 33.9839C143.752 33.9877 144.308 32.9729 144.315 31.7173Z" fill="#3B322F"/>
<path d="M133.173 49.3717H136.45L136.761 41.3213C136.761 40.7126 136.661 40.079 135.867 39.8181C135.867 39.8181 130.18 38.1657 135.085 32.9355C135.734 32.1531 136.066 31.1557 136.016 30.1402V17.841L125.264 17.9776V40.9734C125.171 42.0586 125.308 43.1512 125.665 44.1798C126.023 45.2084 126.594 46.1498 127.341 46.9425C128.087 47.7352 128.993 48.3613 129.998 48.7799C131.002 49.1985 132.084 49.4002 133.173 49.3717Z" fill="url(#paint4_radial)"/>
<path d="M131.536 31.7848C131.548 30.5292 131.008 29.5058 130.329 29.499C129.651 29.4922 129.09 30.5046 129.078 31.7602C129.065 33.0158 129.605 34.0392 130.284 34.046C130.963 34.0528 131.523 33.0404 131.536 31.7848Z" fill="#3B322F"/>
<path d="M161.01 35.0957C160.929 36.6327 160.245 38.0755 159.105 39.109C157.965 40.1425 156.462 40.6827 154.926 40.6117C154.69 40.6117 151.735 40.6117 151.511 40.6117C148.445 40.3259 148.792 38.0152 148.768 35.1951C148.743 32.3749 148.333 30.089 151.35 29.7287C151.598 29.7287 154.591 29.7287 154.851 29.7287C156.374 29.6459 157.869 30.16 159.019 31.1621C160.169 32.1642 160.883 33.5752 161.01 35.0957Z" fill="#DFB995"/>
<path d="M142.546 44.2782C142.507 45.2 142.147 46.079 141.528 46.7629C140.892 47.4746 140.065 47.9879 139.144 48.2413C138.236 48.5023 137.272 48.5023 136.363 48.2413C135.465 47.9888 134.694 47.408 134.203 46.6138C134.163 46.5462 134.136 46.4713 134.125 46.3934C134.114 46.3154 134.118 46.2361 134.138 46.1599C134.157 46.0836 134.192 46.0121 134.239 45.9492C134.287 45.8864 134.346 45.8336 134.414 45.7939C134.51 45.7457 134.617 45.7202 134.724 45.7193H134.799C135.45 45.7357 136.101 45.7109 136.748 45.6448C137.288 45.5852 137.823 45.4897 138.35 45.3591C138.869 45.2192 139.376 45.0363 139.865 44.8124C140.459 44.5243 141.035 44.2007 141.59 43.8434C141.729 43.7665 141.891 43.7442 142.045 43.781C142.199 43.8178 142.334 43.911 142.422 44.0422C142.479 44.1117 142.521 44.192 142.546 44.2782Z" fill="#BE8F67"/>
<path d="M149.773 23.2455C154.079 23.2455 157.57 20.114 157.57 16.2511C157.57 12.3882 154.079 9.25665 149.773 9.25665C145.467 9.25665 141.976 12.3882 141.976 16.2511C141.976 20.114 145.467 23.2455 149.773 23.2455Z" fill="#5B463A"/>
<path d="M153.497 15.2066C156.932 15.2066 159.717 12.7148 159.717 9.6409C159.717 6.56704 156.932 4.07519 153.497 4.07519C150.062 4.07519 147.277 6.56704 147.277 9.6409C147.277 12.7148 150.062 15.2066 153.497 15.2066Z" fill="#5B463A"/>
<path d="M123.24 29.4437C123.24 29.4437 121.303 17.1817 133.868 15.7779C151.487 13.7032 155.82 29.7046 155.82 29.7046L158.005 24.0643L156.912 10.2743L150.419 8.08776L138.512 7.60325L126.642 11.2557L122.458 18.6353L123.24 29.4437Z" fill="#5B463A"/>
<path d="M156.862 29.7909C159.872 29.7909 162.312 27.605 162.312 24.9085C162.312 22.212 159.872 20.0261 156.862 20.0261C153.851 20.0261 151.411 22.212 151.411 24.9085C151.411 27.605 153.851 29.7909 156.862 29.7909Z" fill="#5B463A"/>
<path d="M156.862 22.8219C160.297 22.8219 163.082 20.33 163.082 17.2562C163.082 14.1823 160.297 11.6904 156.862 11.6904C153.427 11.6904 150.642 14.1823 150.642 17.2562C150.642 20.33 153.427 22.8219 156.862 22.8219Z" fill="#5B463A"/>
<path d="M137.082 17.7896C140.518 17.7896 143.303 15.2978 143.303 12.2239C143.303 9.15006 140.518 6.6582 137.082 6.6582C133.647 6.6582 130.862 9.15006 130.862 12.2239C130.862 15.2978 133.647 17.7896 137.082 17.7896Z" fill="#5B463A"/>
<path d="M110.723 66.9621C96.4696 72.6521 120.656 91.1754 134.835 91.1754C149.014 91.1754 169.252 79.4974 168.073 71.3724C167.191 65.2477 145.55 61.1976 137.393 60.9988C125.138 60.7131 121.028 62.8499 110.723 66.9621Z" fill="url(#paint5_radial)"/>
<path d="M132.017 60.2544L127.448 60.9998L132.017 72.889L133.47 73.3611L152.404 61.4222L149.015 60.2171L132.017 60.2544Z" fill="#DFB995"/>
<path d="M133.472 73.3605L136.799 78.9014L155.945 62.4651L152.89 55.7937L133.472 73.3605Z" fill="#F68622"/>
<path d="M129.05 55.7937L133.47 73.3605L126.778 76.9757L123.202 62.3657L129.05 55.7937Z" fill="#F68622"/>
<path d="M129.744 84.3051C130.649 84.3051 131.383 83.5708 131.383 82.6652C131.383 81.7595 130.649 81.0253 129.744 81.0253C128.839 81.0253 128.105 81.7595 128.105 82.6652C128.105 83.5708 128.839 84.3051 129.744 84.3051Z" fill="#D66F27"/>
<path d="M127.672 92.2067C128.577 92.2067 129.311 91.4725 129.311 90.5668C129.311 89.6611 128.577 88.9269 127.672 88.9269C126.767 88.9269 126.033 89.6611 126.033 90.5668C126.033 91.4725 126.767 92.2067 127.672 92.2067Z" fill="#D66F27"/>
<path d="M127.188 100.928C128.093 100.928 128.827 100.194 128.827 99.2884C128.827 98.3827 128.093 97.6485 127.188 97.6485C126.282 97.6485 125.549 98.3827 125.549 99.2884C125.549 100.194 126.282 100.928 127.188 100.928Z" fill="#D66F27"/>
<mask id="mask1" mask-type="alpha" maskUnits="userSpaceOnUse" x="241" y="2" width="29" height="29">
<path d="M255.957 30.4997C263.713 30.4997 270 24.2088 270 16.4487C270 8.68859 263.713 2.39777 255.957 2.39777C248.202 2.39777 241.915 8.68859 241.915 16.4487C241.915 24.2088 248.202 30.4997 255.957 30.4997Z" fill="#99D8E2"/>
</mask>
<g mask="url(#mask1)">
<path d="M256.221 34.4142C266.038 34.4142 273.996 26.3865 273.996 16.4839C273.996 6.58117 266.038 -1.44653 256.221 -1.44653C246.404 -1.44653 238.446 6.58117 238.446 16.4839C238.446 26.3865 246.404 34.4142 256.221 34.4142Z" fill="#99D8E2"/>
<path d="M255.397 15.6646H249.847V5.48983H250.306C251.656 5.48983 252.951 6.02648 253.906 6.98172C254.861 7.93696 255.397 9.23254 255.397 10.5835V15.6646Z" fill="#DFB995"/>
<path d="M254.019 15.5652H249.835V6.4215H250.183C251.197 6.4215 252.17 6.82464 252.887 7.54223C253.604 8.25983 254.007 9.2331 254.007 10.2479V15.5652H254.019Z" fill="#F5D6C9"/>
<path d="M256.328 40.3129L254.726 28.8833L261.691 29.1069L259.667 42.7727H254.701C254.713 42.251 254.872 41.7434 255.16 41.3082C255.448 40.873 255.852 40.528 256.328 40.3129Z" fill="url(#paint6_radial)"/>
<path d="M249.239 20.7844H253.907" stroke="#BE8F67" stroke-width="0.68" stroke-miterlimit="10" stroke-linecap="round"/>
<path d="M264.857 30.1885H252.901V12.659C252.901 12.1746 253.093 11.7101 253.435 11.3676C253.778 11.0252 254.242 10.8327 254.726 10.8327H256.303C258.572 10.8327 260.747 11.7346 262.352 13.3398C263.956 14.9451 264.857 17.1223 264.857 19.3925V30.1885Z" fill="#DFB995"/>
<path d="M255.1 21.0577C258.008 21.0577 260.365 18.6994 260.365 15.7902C260.365 12.881 258.008 10.5226 255.1 10.5226C252.193 10.5226 249.836 12.881 249.836 15.7902C249.836 18.6994 252.193 21.0577 255.1 21.0577Z" fill="#DFB995"/>
<path d="M262.934 15.6646H257.384V5.48983H257.844C259.194 5.48983 260.489 6.02648 261.443 6.98172C262.398 7.93696 262.934 9.23254 262.934 10.5835V15.6646Z" fill="#DFB995"/>
<path d="M260.19 37.977L282.303 37.977C286.335 37.977 289.604 34.7064 289.604 30.672C289.604 26.6376 286.335 23.367 282.303 23.367L260.19 23.367C256.158 23.367 252.89 26.6376 252.89 30.672C252.89 34.7064 256.158 37.977 260.19 37.977Z" fill="#DFB995"/>
<path d="M247.501 17.7899C247.501 17.9142 247.501 18.0384 247.501 18.1626C247.525 18.376 247.562 18.5876 247.613 18.7962C247.795 19.4719 248.15 20.0883 248.643 20.5852C249.009 20.9531 249.445 21.2446 249.924 21.4429C250.404 21.6412 250.918 21.7424 251.437 21.7406H254.516V17.0694H248.258C248.1 17.068 247.945 17.1182 247.817 17.2122C247.69 17.3063 247.596 17.4393 247.55 17.5912C247.528 17.6557 247.511 17.7223 247.501 17.7899Z" fill="#DFB995"/>
<path d="M252.889 31.1215V19.8037H256.614C257.602 19.8037 258.55 20.1964 259.248 20.8953C259.947 21.5943 260.339 22.5423 260.339 23.5307V38.0662H259.768C258.86 38.0646 257.961 37.8834 257.123 37.533C256.285 37.1827 255.525 36.6701 254.886 36.0247C254.246 35.3794 253.741 34.6139 253.398 33.7725C253.056 32.931 252.883 32.0301 252.889 31.1215Z" fill="#F8DBBD"/>
<path d="M255.198 10.5346H255.099C253.858 10.5361 252.657 10.9761 251.709 11.777V18.1378H255.198V10.5346Z" fill="#F8DBBD"/>
<path d="M251.895 16.7467C251.784 16.665 251.668 16.5903 251.548 16.5231C251.453 16.467 251.347 16.4331 251.237 16.4237C251.136 16.3956 251.029 16.3956 250.927 16.4237C250.78 16.5008 250.639 16.588 250.505 16.6846C250.489 16.7011 250.469 16.7142 250.448 16.7232C250.427 16.7321 250.404 16.7368 250.381 16.7368C250.358 16.7368 250.335 16.7321 250.313 16.7232C250.292 16.7142 250.273 16.7011 250.257 16.6846C250.239 16.6406 250.239 16.5918 250.257 16.5479C250.291 16.3165 250.4 16.1026 250.567 15.9391C250.666 15.8365 250.786 15.7566 250.919 15.7051C251.052 15.6536 251.195 15.6317 251.337 15.641C251.611 15.656 251.869 15.7761 252.057 15.9764C252.142 16.076 252.209 16.1895 252.256 16.3119C252.3 16.4491 252.3 16.597 252.256 16.7343C252.25 16.753 252.241 16.7705 252.228 16.7857C252.216 16.8008 252.2 16.8134 252.183 16.8226C252.166 16.8319 252.147 16.8376 252.127 16.8395C252.108 16.8414 252.088 16.8394 252.069 16.8336L251.895 16.7467Z" fill="#5B463A"/>
<path d="M256.228 16.7466C256.122 16.665 256.01 16.5903 255.893 16.523C255.794 16.4667 255.684 16.4328 255.57 16.4236C255.469 16.3968 255.362 16.3968 255.26 16.4236C255.136 16.4236 255.012 16.5851 254.838 16.6845C254.802 16.716 254.755 16.7333 254.707 16.7333C254.66 16.7333 254.613 16.716 254.577 16.6845C254.568 16.6629 254.563 16.6397 254.563 16.6162C254.563 16.5927 254.568 16.5694 254.577 16.5478C254.611 16.3164 254.72 16.1025 254.887 15.9391C254.984 15.8367 255.102 15.7569 255.233 15.7053C255.364 15.6538 255.504 15.6318 255.645 15.6409C255.92 15.6533 256.179 15.7739 256.365 15.9764C256.453 16.0761 256.524 16.1894 256.576 16.3118C256.621 16.4491 256.621 16.5969 256.576 16.7342C256.57 16.753 256.561 16.7704 256.549 16.7856C256.536 16.8008 256.521 16.8133 256.504 16.8226C256.486 16.8318 256.467 16.8375 256.448 16.8394C256.428 16.8413 256.409 16.8393 256.39 16.8336L256.228 16.7466Z" fill="#5B463A"/>
<path d="M261.569 14.0764C260.459 14.0764 259.395 13.6353 258.61 12.8502C257.826 12.065 257.385 11.0001 257.385 9.88972V6.41115H257.733C258.747 6.41115 259.719 6.81429 260.437 7.53188C261.154 8.24947 261.557 9.22274 261.557 10.2376V14.0764H261.569Z" fill="#F5D6C9"/>
<path d="M260.55 33.3688C262.408 33.3688 263.915 30.5209 263.915 27.008C263.915 23.495 262.408 20.6471 260.55 20.6471C258.692 20.6471 257.185 23.495 257.185 27.008C257.185 30.5209 258.692 33.3688 260.55 33.3688Z" fill="#DFB995"/>
<path d="M254.64 23.9273C255.709 23.9273 256.576 23.0763 256.576 22.0265C256.576 20.9768 255.709 20.1257 254.64 20.1257C253.57 20.1257 252.703 20.9768 252.703 22.0265C252.703 23.0763 253.57 23.9273 254.64 23.9273Z" fill="url(#paint7_radial)"/>
<path d="M256.837 22.8597H252.404C251.087 22.8597 249.824 22.3361 248.892 21.4042C247.961 20.4722 247.438 19.2083 247.438 17.8903C247.438 17.775 247.483 17.6644 247.565 17.5828C247.646 17.5013 247.757 17.4555 247.872 17.4555H256.787C257.495 17.4555 258.174 17.7369 258.674 18.2378C259.175 18.7387 259.456 19.4181 259.456 20.1265C259.456 20.8349 259.175 21.5143 258.674 22.0152C258.174 22.5162 257.495 22.7976 256.787 22.7976L256.837 22.8597Z" fill="#F8DBBD"/>
<path d="M247.451 17.7899C247.451 17.9141 247.451 18.0384 247.451 18.1626C247.475 18.3759 247.512 18.5875 247.562 18.7962L247.811 18.7092C248.166 18.6053 248.479 18.3898 248.702 18.0945C248.926 17.7992 249.048 17.4398 249.052 17.0694H248.196C248.039 17.0707 247.887 17.122 247.762 17.2159C247.637 17.3098 247.545 17.4413 247.5 17.5911C247.477 17.6557 247.461 17.7222 247.451 17.7899Z" fill="#797778"/>
<path d="M253.833 22.1378C252.753 21.9867 251.738 21.5346 250.902 20.8334C250.84 20.763 250.806 20.6725 250.806 20.5787C250.806 20.4849 250.84 20.3944 250.902 20.324C250.954 20.2701 251.021 20.233 251.094 20.2175C251.167 20.2019 251.243 20.2088 251.312 20.2371C251.63 20.3802 251.97 20.4684 252.318 20.4979C252.656 20.5174 252.994 20.4881 253.324 20.411C253.671 20.3364 254.044 20.2246 254.441 20.1128C254.87 19.9814 255.328 19.9814 255.757 20.1128C255.815 20.1309 255.869 20.1607 255.915 20.2003C255.961 20.2399 255.999 20.2886 256.026 20.3432C256.052 20.3979 256.068 20.4574 256.071 20.5182C256.074 20.579 256.064 20.6397 256.043 20.6967C255.832 21.1087 255.517 21.4583 255.129 21.7111C254.741 21.9639 254.295 22.111 253.833 22.1378Z" fill="#BE8F67"/>
<path d="M255.086 37.431C250.517 34.1636 252.876 24.4236 252.876 24.4236L265.081 22.2371L255.086 37.431Z" fill="#F68622"/>
<path d="M263.591 23.2199C263.201 22.76 263.01 22.164 263.059 21.5631C263.109 20.9622 263.395 20.4055 263.854 20.0155L265.294 18.7941L265.414 18.9362C265.77 19.3559 265.944 19.8997 265.899 20.4481C265.854 20.9965 265.593 21.5046 265.174 21.8605L263.583 23.2104L263.591 23.2199Z" fill="#F68622"/>
<path d="M264.796 23.3796C265.502 23.3796 266.075 22.8067 266.075 22.1C266.075 21.3933 265.502 20.8204 264.796 20.8204C264.09 20.8204 263.517 21.3933 263.517 22.1C263.517 22.8067 264.09 23.3796 264.796 23.3796Z" fill="url(#paint8_radial)"/>
<path d="M264.233 23.3914C264.225 22.7991 264.449 22.2271 264.856 21.797C265.263 21.367 265.821 21.1129 266.413 21.0888L268.3 21.0532L268.303 21.2395C268.314 21.7897 268.105 22.3214 267.724 22.7178C267.342 23.1141 266.819 23.3426 266.269 23.353L264.233 23.3914Z" fill="#F68622"/>
<path d="M251.982 24.0005C251.336 23.4787 252.429 21.8636 252.429 21.8636C253.46 20.6213 255.906 20.8201 255.906 20.8201L255.819 20.9816C255.359 21.6027 253.658 23.0314 252.665 24.0129C252.541 24.1868 252.33 24.2241 251.982 24.0005Z" fill="url(#paint9_linear)"/>
</g>
<mask id="mask2" mask-type="alpha" maskUnits="userSpaceOnUse" x="190" y="9" width="35" height="36">
<path d="M207.714 44.0576C217.24 44.0576 224.961 36.3312 224.961 26.8003C224.961 17.2694 217.24 9.54308 207.714 9.54308C198.189 9.54308 190.467 17.2694 190.467 26.8003C190.467 36.3312 198.189 44.0576 207.714 44.0576Z" fill="#99D8E2"/>
</mask>
<g mask="url(#mask2)">
<ellipse cx="207.524" cy="26.6075" rx="23.1221" ry="23.136" fill="#99D8E2"/>
<path d="M214.399 32.1654C223.217 33.6648 225.695 56.624 223.224 67.7324L220.515 68.583C220.515 68.583 218.822 48.2477 212.8 43.8144C206.777 39.3812 212.288 31.805 214.399 32.1654Z" fill="#E1DFDD"/>
<path d="M200.654 32.533C193.125 34.054 189.235 57.2367 191.476 68.3811L194.307 68.0495C194.307 68.0495 196.223 48.9829 202.332 44.6578C208.441 40.3327 202.786 32.1005 200.654 32.533Z" fill="#E1DFDD"/>
<path d="M217.634 65.0503C219.392 65.0071 219.024 53.7113 219.024 45.4431C219.024 38.2346 220.508 34.3924 215.271 32.4677C213.937 31.9802 212.527 31.7361 211.107 31.7469H204.796C203.381 31.7362 201.975 31.9804 200.646 32.4677C194.825 34.6303 197.484 39.0275 197.484 46.3658C197.484 54.6268 195.892 65.108 197.484 65.108" fill="#E1DFDD"/>
<path d="M204.257 31.6977C204.257 31.6977 205.229 33.2259 208.435 33.2259C209.089 33.2569 209.74 33.1371 210.34 32.8759C210.939 32.6147 211.471 32.2189 211.893 31.7193C211.75 31.7147 211.608 31.6814 211.477 31.6214C211.346 31.5614 211.229 31.4758 211.132 31.3697C211.034 31.2636 210.959 31.1391 210.911 31.0036C210.862 30.8681 210.841 30.7242 210.849 30.5804C210.833 29.9966 210.871 29.4125 210.964 28.8359H205.972C205.972 28.8359 205.878 29.8019 205.878 30.4795C205.878 31.1571 205.763 31.6977 204.257 31.6977Z" fill="url(#paint10_linear)"/>
<path d="M215.684 23.357H200.375V19.1761C200.375 14.9519 202.19 11.8234 208.04 11.8234C214.142 12.1189 215.684 14.9519 215.684 19.1761V23.357Z" fill="#5B463A"/>
<path d="M201.806 21.3529H201.309C201.083 21.3494 200.859 21.3931 200.65 21.4812C200.442 21.5694 200.254 21.7 200.099 21.8647C199.776 22.1891 199.594 22.6285 199.594 23.0866C199.594 23.5447 199.776 23.9841 200.099 24.3084C200.257 24.4704 200.447 24.5982 200.656 24.6838C200.866 24.7693 201.09 24.8109 201.317 24.8058H201.792L201.806 21.3529Z" fill="#DFB995"/>
<path d="M208.038 13.9069C209.807 13.8713 211.521 14.5283 212.814 15.7379C213.448 16.2918 213.954 16.9758 214.3 17.7433C214.646 18.5108 214.822 19.3438 214.817 20.1856V24.5612C214.828 25.4039 214.655 26.2389 214.309 27.0073C213.963 27.7758 213.452 28.459 212.814 29.0088C211.527 30.2303 209.811 30.8958 208.038 30.8614C206.248 30.9014 204.515 30.236 203.211 29.0088C202.583 28.4564 202.082 27.7751 201.741 27.0113C201.401 26.2475 201.229 25.4192 201.237 24.5828V20.1856C201.23 19.3462 201.402 18.515 201.743 17.7479C202.083 16.9808 202.584 16.2954 203.211 15.7379C204.514 14.5302 206.233 13.874 208.009 13.9069H208.038Z" fill="#DFB995"/>
<path d="M207.728 29.4724H203.19V21.2258H207.728V29.4724Z" fill="url(#paint11_radial)"/>
<path d="M210.979 23.7015C210.945 23.7803 210.888 23.8478 210.817 23.8962C210.746 23.9446 210.662 23.9721 210.576 23.9754C210.491 23.9676 210.41 23.9384 210.339 23.8905C210.268 23.8426 210.211 23.7776 210.173 23.7015C210.063 23.4954 210.008 23.2645 210.014 23.0311C210.021 22.7944 210.083 22.5625 210.194 22.3535C210.233 22.2784 210.291 22.2144 210.361 22.1678C210.432 22.1211 210.513 22.0932 210.598 22.0868C210.682 22.0918 210.764 22.1191 210.835 22.166C210.906 22.2128 210.963 22.2775 211.001 22.3535C211.112 22.5619 211.166 22.7953 211.16 23.0311C211.155 23.2659 211.093 23.4961 210.979 23.7015Z" fill="#33322E"/>
<path d="M204.711 22.0868C204.795 22.0932 204.876 22.1211 204.947 22.1678C205.018 22.2144 205.075 22.2784 205.114 22.3535C205.225 22.5626 205.287 22.7944 205.294 23.0311C205.3 23.2645 205.245 23.4954 205.136 23.7015C205.098 23.778 205.041 23.8434 204.97 23.8914C204.899 23.9394 204.817 23.9683 204.732 23.9754C204.65 23.969 204.571 23.94 204.503 23.8918C204.436 23.8435 204.383 23.7777 204.351 23.7015C204.226 23.5087 204.163 23.2823 204.17 23.0528C204.147 22.8182 204.194 22.582 204.307 22.3751C204.339 22.2931 204.395 22.2222 204.466 22.171C204.538 22.1198 204.623 22.0905 204.711 22.0868Z" fill="#33322E"/>
<path d="M207.728 26.5789C207.728 26.5356 207.606 26.4203 207.368 26.2473C207.162 26.1002 206.98 25.9228 206.828 25.721C206.651 25.523 206.556 25.2655 206.561 25.0002C206.567 24.8779 206.597 24.758 206.651 24.6477C206.704 24.5375 206.779 24.4391 206.871 24.3586C207.246 24.0085 207.517 23.5622 207.656 23.0683L207.728 22.4556C208.028 23.3257 208.117 24.2547 207.988 25.166C207.939 25.6431 207.852 26.1155 207.728 26.5789Z" fill="#DFB995"/>
<g style="mix-blend-mode:multiply" opacity="0.5">
<g style="mix-blend-mode:multiply" opacity="0.5">
<path d="M207.245 27.5665C207.454 27.5665 207.634 27.5665 207.814 27.5665C207.995 27.5665 208.167 27.5232 208.34 27.4872C208.506 27.455 208.67 27.4116 208.83 27.3574C209.01 27.3019 209.183 27.2295 209.349 27.1411C209.367 27.1301 209.386 27.123 209.407 27.1203C209.428 27.1176 209.448 27.1194 209.468 27.1255C209.488 27.1317 209.506 27.1421 209.522 27.156C209.537 27.1699 209.55 27.1869 209.558 27.206C209.568 27.2364 209.568 27.2694 209.558 27.2997C209.512 27.56 209.37 27.7937 209.162 27.9557C208.96 28.1114 208.725 28.2184 208.475 28.2684C208.225 28.3184 207.967 28.3101 207.721 28.2441C207.467 28.1843 207.24 28.0393 207.08 27.8332C207.058 27.7989 207.05 27.758 207.057 27.7182C207.063 27.6784 207.084 27.6424 207.116 27.6169C207.147 27.6107 207.178 27.6107 207.209 27.6169L207.245 27.5665Z" fill="#BE8F67"/>
</g>
</g>
<path d="M214.343 21.3887H214.832C215.173 21.3922 215.505 21.4962 215.787 21.6879C216.069 21.8796 216.288 22.1503 216.416 22.4661C216.545 22.7819 216.577 23.1286 216.51 23.4628C216.442 23.7969 216.277 24.1036 216.036 24.3443C215.878 24.5063 215.688 24.634 215.478 24.7196C215.269 24.8051 215.044 24.8467 214.818 24.8416H214.343V21.3887Z" fill="#DFB995"/>
<path d="M205.12 13.4883C203.881 14.0343 202.827 14.9297 202.087 16.0652C201.348 17.2006 200.955 18.527 200.956 19.8823V21.8934C200.952 21.9898 200.986 22.0838 201.051 22.1553C201.116 22.2267 201.206 22.2699 201.302 22.2755C201.361 22.273 201.418 22.2556 201.468 22.225C201.524 22.1894 201.569 22.1389 201.599 22.079C201.628 22.0192 201.64 21.9525 201.634 21.8862C201.634 21.1654 201.958 17.2295 204.386 17.2728H211.475C214.082 17.1718 214.443 21.151 214.414 21.879C214.407 21.9464 214.419 22.0143 214.448 22.0754C214.477 22.1364 214.523 22.1882 214.58 22.225C214.63 22.2556 214.687 22.273 214.745 22.2755C214.794 22.2736 214.841 22.2623 214.885 22.2421C214.929 22.2218 214.968 22.1932 215.001 22.1577C215.034 22.1222 215.059 22.0806 215.076 22.0353C215.093 21.9899 215.1 21.9417 215.098 21.8934V19.9543C215.099 18.5825 214.696 17.2407 213.941 16.096C213.185 14.9514 212.109 14.0546 210.848 13.5171L210.675 13.445C209.797 13.074 208.853 12.8864 207.9 12.8938C206.948 12.9013 206.007 13.1036 205.135 13.4883H205.12Z" fill="#5B463A"/>
</g>
<mask id="mask3" mask-type="alpha" maskUnits="userSpaceOnUse" x="209" y="56" width="50" height="51">
<path d="M234.257 106.137C247.905 106.137 258.969 95.0666 258.969 81.4105C258.969 67.7544 247.905 56.6839 234.257 56.6839C220.609 56.6839 209.545 67.7544 209.545 81.4105C209.545 95.0666 220.609 106.137 234.257 106.137Z" fill="#99D8E2"/>
</mask>
<g mask="url(#mask3)">
<ellipse cx="234.152" cy="80.9501" rx="28.5299" ry="28.547" fill="#99D8E2"/>
<path d="M234.453 134.725C240.675 134.725 258.934 125.502 258.934 113.574C258.934 98.0091 253.929 101.78 253.929 92.5479C253.929 84.1337 246.96 90.1642 246.96 77.5874C246.96 65.0107 240.515 60.5901 234.257 60.5901C227.999 60.5901 221.555 65.0374 221.555 77.5874C221.555 90.1375 214.586 84.1337 214.586 92.5479C214.586 101.78 209.581 98.0091 209.581 113.574C209.581 125.502 227.848 134.725 234.062 134.725" fill="#5A463D"/>
<path d="M214.789 107.891C213.314 113.228 210.94 131.906 213.314 144.759L217.314 143.335C218.203 136.994 223.643 116.866 226.034 91.4719C226.088 91.0627 218.345 93.9356 214.789 107.891Z" fill="url(#paint12_radial)"/>
<path d="M255.03 107.891C256.505 113.228 258.879 131.906 256.505 144.759L252.505 143.335C251.616 136.994 246.176 116.866 243.785 91.4719C243.741 91.0627 251.474 93.9356 255.03 107.891Z" fill="url(#paint13_radial)"/>
<path d="M249.636 105.899C249.636 100.02 247.254 91.0186 242.134 91.0186H227.591C222.48 91.0186 220.089 100.02 220.089 105.899C220.089 110.826 218.435 130.448 217.511 137.67C217.47 137.994 217.499 138.323 217.596 138.635C217.692 138.947 217.854 139.235 218.07 139.48C218.286 139.724 218.551 139.92 218.849 140.055C219.146 140.189 219.469 140.258 219.795 140.258H250.285C250.61 140.259 250.932 140.191 251.228 140.059C251.525 139.926 251.79 139.731 252.006 139.488C252.222 139.245 252.384 138.959 252.481 138.649C252.578 138.338 252.608 138.011 252.569 137.688C251.698 130.448 249.636 110.862 249.636 105.899Z" fill="#E1DFDD"/>
<path d="M238.737 83.8218V87.9755C238.737 89.363 240.88 91.0174 242.133 91.0174C243.386 91.0174 238.462 99.4227 234.897 99.4227H234.835C231.279 99.4227 226.346 91.0174 227.59 91.0174C228.835 91.0174 230.995 89.363 230.995 87.9755V83.8218" fill="url(#paint14_linear)"/>
<path d="M234.4 87.7096C239.481 87.7096 243.6 82.0549 243.6 75.0795C243.6 68.1041 239.481 62.4493 234.4 62.4493C229.319 62.4493 225.2 68.1041 225.2 75.0795C225.2 82.0549 229.319 87.7096 234.4 87.7096Z" fill="#BD8F6B"/>
<path d="M234.657 74.7195H228.701V85.5085H234.657V74.7195Z" fill="url(#paint15_radial)"/>
<path d="M233.964 81.0209C234.426 81.2521 234.657 81.3855 234.657 81.43C235.964 80.3004 236.026 78.3703 234.657 76.0933L234.471 76.9027C234.226 77.5667 233.805 78.1511 233.253 78.5927C233.115 78.6962 233.004 78.8307 232.929 78.9852C232.853 79.1398 232.815 79.31 232.817 79.4821C232.782 79.7944 232.858 80.1092 233.031 80.3716C233.286 80.6584 233.606 80.8808 233.964 81.0209Z" fill="#BD8F6B"/>
<path d="M236.924 83.5812C236.697 83.8768 236.417 84.1272 236.097 84.3194C235.775 84.5199 235.42 84.6614 235.048 84.7374C234.659 84.826 234.255 84.826 233.866 84.7374C233.481 84.6422 233.131 84.4421 232.853 84.1593C232.785 84.0869 232.748 83.9915 232.748 83.8925C232.748 83.7934 232.785 83.6981 232.853 83.6256C232.904 83.5925 232.961 83.5712 233.021 83.5635C233.081 83.5558 233.142 83.5618 233.2 83.5812C233.47 83.6309 233.743 83.6606 234.017 83.6701C234.274 83.6752 234.53 83.6544 234.782 83.6078C235.054 83.5595 235.322 83.4881 235.582 83.3944L236.409 83.092H236.462C236.508 83.0749 236.557 83.0672 236.606 83.0691C236.655 83.0711 236.703 83.0827 236.748 83.1034C236.793 83.1241 236.833 83.1533 236.866 83.1895C236.899 83.2257 236.925 83.2681 236.942 83.3143C236.97 83.4023 236.964 83.4977 236.924 83.5812Z" fill="#9A6642"/>
<path d="M230.214 78.4767C230.675 78.4767 231.049 77.8595 231.049 77.0981C231.049 76.3367 230.675 75.7194 230.214 75.7194C229.752 75.7194 229.378 76.3367 229.378 77.0981C229.378 77.8595 229.752 78.4767 230.214 78.4767Z" fill="#3B322F"/>
<path d="M238.274 78.5127C238.736 78.5127 239.11 77.8955 239.11 77.1341C239.11 76.3727 238.736 75.7555 238.274 75.7555C237.813 75.7555 237.439 76.3727 237.439 77.1341C237.439 77.8955 237.813 78.5127 238.274 78.5127Z" fill="#3B322F"/>
<path d="M225.83 79.9973C227.259 79.9973 228.417 78.8385 228.417 77.409C228.417 75.9795 227.259 74.8207 225.83 74.8207C224.402 74.8207 223.244 75.9795 223.244 77.409C223.244 78.8385 224.402 79.9973 225.83 79.9973Z" fill="#BD8F6B"/>
<path d="M242.516 79.9973C243.945 79.9973 245.103 78.8385 245.103 77.409C245.103 75.9795 243.945 74.8207 242.516 74.8207C241.087 74.8207 239.929 75.9795 239.929 77.409C239.929 78.8385 241.087 79.9973 242.516 79.9973Z" fill="#BD8F6B"/>
<path d="M244.621 73.7982C244.621 71.2989 238.736 71.5657 238.736 66.8961C238.736 66.8961 237.403 73.816 224.434 73.816C224.434 73.816 222.283 60.6433 234.212 60.6433C246.141 60.6433 244.621 73.7982 244.621 73.7982Z" fill="#5A463D"/>
</g>
<mask id="mask4" mask-type="alpha" maskUnits="userSpaceOnUse" x="0" y="33" width="52" height="52">
<path d="M25.5273 84.6319C39.6257 84.6319 51.0547 73.196 51.0547 59.0892C51.0547 44.9824 39.6257 33.5466 25.5273 33.5466C11.429 33.5466 0 44.9824 0 59.0892C0 73.196 11.429 84.6319 25.5273 84.6319Z" fill="#F68622"/>
</mask>
<g mask="url(#mask4)">
<ellipse cx="25.2721" cy="58.837" rx="28.1639" ry="28.1807" fill="#F68622"/>
<path d="M26.9252 41.4534C19.4557 41.4534 15.3852 46.618 15.3852 52.5888C15.3852 58.5596 9.93832 65.6389 9.93832 76.598C9.93832 87.5571 19.1032 89.8581 27.84 89.8581C36.5768 89.8581 43.9037 86.2974 43.9037 76.8499C43.9037 67.4024 38.1631 60.2811 38.1631 53.6049C38.1631 46.9287 33.1694 41.4534 26.9252 41.4534Z" fill="#5A463D"/>
<path d="M45.8998 84.0818C49.1593 94.5255 49.2441 105.703 46.1431 116.195L42.5846 115.54C43.4827 92.5971 37.3895 85.6857 35.8117 82.8473L32.3539 76.423C31.6007 74.8553 31.411 73.0757 31.8168 71.3843C32.186 69.1757 32.9582 68.2016 34.1415 68.4451C36.5419 68.9322 40.6543 69.9819 42.9707 75.1633C43.3903 76.1375 45.3291 82.1419 45.8998 84.0818Z" fill="url(#paint16_radial)"/>
<path d="M8.37662 84.1659C5.25139 94.6434 5.30104 105.813 8.5193 116.262L12.0778 115.565C10.8944 92.6308 16.912 85.6523 18.4479 82.8139L21.805 76.3476C22.5384 74.773 22.7074 72.9936 22.2834 71.3089C21.8889 69.1087 21.1084 68.1346 19.925 68.3949C17.5583 68.9156 13.4542 70.0073 11.205 75.2391C10.7937 76.1964 8.93054 82.2092 8.37662 84.1659Z" fill="url(#paint17_radial)"/>
<path d="M42.3586 105.092C42.4509 104.756 40.999 100.893 39.4379 95.9636C38.4895 92.9656 38.649 86.4406 38.9595 84.4419C39.4379 81.4439 40.4451 78.6306 40.4451 77.0351C40.4451 71.8369 34.5198 67.6128 27.2181 67.6128C19.9164 67.6128 13.9912 71.8117 13.9912 77.0351C14.0836 79.4851 14.4553 81.9166 15.099 84.2823C15.8879 87.4399 16.5174 93.1252 15.4179 95.9636C13.5967 100.65 12.5644 103.202 11.9853 105.025C11.9853 105.025 17.6336 105.319 26.9915 105.319C36.3494 105.319 42.3586 105.1 42.3586 105.092Z" fill="#E1DFDD"/>
<path d="M34.1417 44.8548C33.233 43.8491 32.1274 43.0412 30.8935 42.4814C29.6595 41.9215 28.3237 41.6216 26.969 41.6004C25.6143 41.5791 24.2697 41.8369 23.0188 42.3578C21.7679 42.8786 20.6375 43.6514 19.6978 44.628C17.6994 46.6346 16.5794 49.3532 16.5841 52.186C16.5348 53.5928 16.7646 54.9954 17.2602 56.3128C17.7557 57.6302 18.5072 58.8364 19.4712 59.8615C20.3838 60.8694 21.4943 61.6784 22.7332 62.2379C23.9721 62.7974 25.3129 63.0955 26.6721 63.1137C28.0312 63.1318 29.3795 62.8695 30.6329 62.3432C31.8863 61.8169 33.0178 61.0379 33.957 60.0547C34.9495 59.0634 35.7357 57.885 36.2702 56.5877C36.8046 55.2904 37.0767 53.8999 37.0707 52.4967C37.1127 51.0923 36.8754 49.6935 36.3726 48.3816C35.8697 47.0698 35.1114 45.8709 34.1417 44.8548Z" fill="#5A463D"/>
<path d="M33.7898 68.4191C32.9318 68.3013 32.0881 68.0958 31.2719 67.8061C31.03 67.619 30.8414 67.3715 30.725 67.0886C30.6086 66.8056 30.5686 66.497 30.6089 66.1937L30.6844 60.416H23.4247V66.0929C23.4182 66.5809 23.2914 67.0598 23.0555 67.4869C22.2839 68.0434 21.3544 68.3377 20.4034 68.3267C22.2162 71.098 30.2648 72.0133 33.7898 68.4191Z" fill="url(#paint18_radial)"/>
<path d="M27.0328 64.3118C31.0793 64.3118 34.3596 59.8075 34.3596 54.2513C34.3596 48.695 31.0793 44.1907 27.0328 44.1907C22.9863 44.1907 19.7059 48.695 19.7059 54.2513C19.7059 59.8075 22.9863 64.3118 27.0328 64.3118Z" fill="#BD8F6B"/>
<path d="M27.2512 52.4698H22.375V61.3126H27.2512V52.4698Z" fill="url(#paint19_radial)"/>
<path d="M34.0329 45.0823C33.8248 44.8741 33.5641 44.7266 33.2786 44.6555C32.9931 44.5844 32.6937 44.5925 32.4124 44.6788C32.1312 44.7651 31.8787 44.9265 31.6822 45.1455C31.4856 45.3645 31.3524 45.633 31.2968 45.922C31.1414 46.4968 31.1414 47.1025 31.2968 47.6772C32.0522 50.8599 34.5028 50.8599 34.3098 54.1099C34.3098 54.6305 35.9044 55.7894 36.2234 56.2849C37.6921 53.4716 36.0639 47.2153 34.0329 45.0823Z" fill="#5A463D"/>
<path d="M29.1412 60.3823C28.9338 60.6539 28.6776 60.8846 28.3858 61.0625C28.0888 61.2461 27.7623 61.3768 27.4207 61.4488C27.0623 61.537 26.6879 61.537 26.3296 61.4488L26.0694 61.3732L25.826 61.2472C25.7444 61.2068 25.6682 61.1559 25.5994 61.0961L25.398 60.9197C25.3511 60.8676 25.3208 60.8026 25.311 60.7331C25.3012 60.6636 25.3123 60.5928 25.343 60.5297C25.3736 60.4666 25.4224 60.4141 25.483 60.3788C25.5436 60.3436 25.6134 60.3272 25.6834 60.3319H25.7505C25.9971 60.3783 26.2467 60.4063 26.4975 60.4159C26.7339 60.4212 26.9702 60.4015 27.2024 60.3571C27.4532 60.3115 27.7001 60.2469 27.941 60.1639L28.6963 59.8784H28.7467C28.7897 59.8625 28.8353 59.8552 28.8811 59.8572C28.9269 59.8592 28.9718 59.8702 29.0132 59.8898C29.0547 59.9093 29.0918 59.937 29.1224 59.9711C29.153 60.0052 29.1765 60.045 29.1915 60.0883C29.2063 60.1379 29.2095 60.1902 29.2007 60.2412C29.192 60.2922 29.1716 60.3405 29.1412 60.3823Z" fill="#9A6642"/>
<path d="M23.4169 55.605C23.7924 55.605 24.0967 55.0974 24.0967 54.4713C24.0967 53.8452 23.7924 53.3376 23.4169 53.3376C23.0415 53.3376 22.7371 53.8452 22.7371 54.4713C22.7371 55.0974 23.0415 55.605 23.4169 55.605Z" fill="#3B322F"/>
<path d="M30.4245 55.6307C30.7999 55.6307 31.1043 55.1232 31.1043 54.497C31.1043 53.8709 30.7999 53.3633 30.4245 53.3633C30.049 53.3633 29.7447 53.8709 29.7447 54.497C29.7447 55.1232 30.049 55.6307 30.4245 55.6307Z" fill="#3B322F"/>
<path d="M20.2184 58.166C21.354 58.166 22.2746 57.2449 22.2746 56.1086C22.2746 54.9723 21.354 54.0511 20.2184 54.0511C19.0827 54.0511 18.1621 54.9723 18.1621 56.1086C18.1621 57.2449 19.0827 58.166 20.2184 58.166Z" fill="#BD8F6B"/>
<path d="M33.4951 58.166C34.6307 58.166 35.5513 57.2449 35.5513 56.1086C35.5513 54.9723 34.6307 54.0511 33.4951 54.0511C32.3595 54.0511 31.4389 54.9723 31.4389 56.1086C31.4389 57.2449 32.3595 58.166 33.4951 58.166Z" fill="#BD8F6B"/>
<path d="M32.2367 45.1745C32.1612 45.1745 32.4801 45.4432 31.6492 46.1319C30.7512 46.283 29.2321 48.2733 25.1952 50.8766C23.4344 51.8993 21.397 52.3429 19.3707 52.1447C18.7917 52.0708 18.2425 51.845 17.779 51.49C17.3154 51.1351 16.954 50.6637 16.7315 50.1237C16.509 49.5838 16.4333 48.9945 16.5121 48.4158C16.5909 47.8371 16.8214 47.2896 17.1802 46.8289C17.348 46.6189 17.5327 46.3754 17.7257 46.0983C20.1848 42.6888 23.3404 41.2444 27.0836 41.5887C30.8268 41.933 30.3819 42.3949 32.2367 45.1745Z" fill="#5A463D"/>
<path d="M23.4 57.1908C22.8684 57.1925 22.3484 57.0363 21.9056 56.742C21.4629 56.4478 21.1173 56.0287 20.9128 55.5378C20.7082 55.0469 20.6538 54.5063 20.7565 53.9845C20.8592 53.4626 21.1143 52.983 21.4895 52.6063C21.8648 52.2297 22.3433 51.9729 22.8645 51.8685C23.3857 51.7642 23.9262 51.8169 24.4174 52.02C24.9086 52.2232 25.3286 52.5676 25.624 53.0097C25.9195 53.4518 26.0772 53.9717 26.0773 54.5036C26.0784 54.8561 26.0099 55.2053 25.8759 55.5313C25.7418 55.8573 25.5448 56.1536 25.2961 56.4032C25.0473 56.6529 24.7518 56.851 24.4265 56.9861C24.1011 57.1213 23.7523 57.1908 23.4 57.1908ZM23.4 52.4293C22.988 52.4293 22.5852 52.5517 22.2427 52.7809C21.9003 53.0101 21.6335 53.3359 21.4762 53.7169C21.3189 54.098 21.2782 54.5171 21.3592 54.9214C21.4402 55.3256 21.6393 55.6967 21.9312 55.9876C22.2231 56.2785 22.5948 56.4762 22.9991 56.5556C23.4034 56.635 23.8221 56.5926 24.2023 56.4336C24.5825 56.2747 24.907 56.0065 25.1347 55.6629C25.3624 55.3193 25.483 54.9158 25.4814 54.5036C25.4791 53.9527 25.2589 53.4251 24.8688 53.0363C24.4787 52.6476 23.9505 52.4293 23.4 52.4293Z" fill="#077782"/>
<path d="M26.6898 57.6868C27.0674 57.8716 27.2521 57.9808 27.2521 58.0144C28.3264 57.0906 28.3767 55.495 27.2521 53.6223L27.101 54.2858C26.9032 54.8315 26.5574 55.3113 26.1023 55.6714C25.9931 55.7557 25.9047 55.8638 25.8436 55.9875C25.7825 56.1112 25.7504 56.2472 25.7498 56.3852C25.7218 56.6445 25.7841 56.9055 25.926 57.1242C26.1331 57.369 26.3947 57.5617 26.6898 57.6868Z" fill="#BD8F6B"/>
<path d="M30.4413 57.1754C29.9101 57.1754 29.3909 57.0178 28.9492 56.7225C28.5076 56.4272 28.1634 56.0075 27.9601 55.5165C27.7568 55.0255 27.7036 54.4851 27.8073 53.9639C27.9109 53.4426 28.1667 52.9638 28.5423 52.5879C28.9179 52.2121 29.3964 51.9562 29.9174 51.8525C30.4383 51.7488 30.9783 51.802 31.4691 52.0054C31.9598 52.2088 32.3793 52.5532 32.6744 52.9952C32.9695 53.4371 33.127 53.9566 33.127 54.4881C33.127 55.2008 32.844 55.8844 32.3404 56.3883C31.8367 56.8923 31.1536 57.1754 30.4413 57.1754ZM30.4413 52.4139C30.0293 52.4139 29.6266 52.5362 29.2841 52.7655C28.9416 52.9947 28.6749 53.3204 28.5176 53.7015C28.3603 54.0825 28.3196 54.5017 28.4006 54.9059C28.4815 55.3101 28.6806 55.6812 28.9725 55.9722C29.2645 56.2631 29.6361 56.4608 30.0404 56.5402C30.4447 56.6196 30.8635 56.5771 31.2437 56.4182C31.6238 56.2593 31.9483 55.9911 32.176 55.6475C32.4037 55.3039 32.5244 54.9004 32.5227 54.4881C32.5205 53.9372 32.3002 53.4097 31.9101 53.0209C31.52 52.6321 30.9919 52.4139 30.4413 52.4139Z" fill="#077782"/>
<path d="M28.3681 54.4373H27.7638C27.7638 54.2146 27.6754 54.001 27.518 53.8435C27.3606 53.686 27.1471 53.5975 26.9245 53.5975C26.7019 53.5975 26.4885 53.686 26.3311 53.8435C26.1737 54.001 26.0852 54.2146 26.0852 54.4373H25.4894C25.4894 54.0542 25.6415 53.6868 25.9122 53.4159C26.1829 53.1451 26.5501 52.9929 26.9329 52.9929C27.3158 52.9929 27.6829 53.1451 27.9537 53.4159C28.2244 53.6868 28.3765 54.0542 28.3765 54.4373H28.3681Z" fill="#077782"/>
</g>
<path d="M49.6014 75.4481C49.6014 75.4481 42.3008 73.8952 40.2522 74.2057C37.6324 74.5288 45.3676 79.436 50.5947 80.1566L49.6014 75.4481Z" fill="#DFB995"/>
<defs>
<radialGradient id="paint0_radial" cx="0" cy="0" r="1" gradientUnits="userSpaceOnUse" gradientTransform="translate(175.292 117.139) rotate(-177.589) scale(80.9029 119.808)">
<stop stop-color="#D66F27"/>
<stop offset="0.38" stop-color="#F68622"/>
</radialGradient>
<radialGradient id="paint1_radial" cx="0" cy="0" r="1" gradientUnits="userSpaceOnUse" gradientTransform="translate(108.912 102.145) scale(30.6303 30.6487)">
<stop stop-color="#D66F27"/>
<stop offset="0.52" stop-color="#F68622"/>
</radialGradient>
<radialGradient id="paint2_radial" cx="0" cy="0" r="1" gradientUnits="userSpaceOnUse" gradientTransform="translate(126.778 35.1334) scale(5.8107 5.81418)">
<stop stop-color="#BE8F67"/>
<stop offset="1" stop-color="#DFB995"/>
</radialGradient>
<linearGradient id="paint3_linear" x1="140.491" y1="50.8992" x2="140.491" y2="58.563" gradientUnits="userSpaceOnUse">
<stop stop-color="#BE8F67"/>
<stop offset="1" stop-color="#DFB995"/>
</linearGradient>
<radialGradient id="paint4_radial" cx="0" cy="0" r="1" gradientUnits="userSpaceOnUse" gradientTransform="translate(134.83 35.1389) scale(6.35857 8.67599)">
<stop offset="0.0833333" stop-color="#A47852"/>
<stop offset="1" stop-color="#DFB995" stop-opacity="0.4"/>
</radialGradient>
<radialGradient id="paint5_radial" cx="0" cy="0" r="1" gradientUnits="userSpaceOnUse" gradientTransform="translate(136.052 64.0302) scale(58.4546 58.4897)">
<stop stop-color="#D66F27"/>
<stop offset="0.22" stop-color="#E57C25"/>
<stop offset="0.38" stop-color="#F68622"/>
</radialGradient>
<radialGradient id="paint6_radial" cx="0" cy="0" r="1" gradientUnits="userSpaceOnUse" gradientTransform="translate(-99661.7 429.732) scale(30.9667 61.5302)">
<stop stop-color="#DFB995"/>
<stop offset="0.35" stop-color="#ECCBAA"/>
<stop offset="0.7" stop-color="#F5D7B8"/>
<stop offset="1" stop-color="#F8DBBD"/>
</radialGradient>
<radialGradient id="paint7_radial" cx="0" cy="0" r="1" gradientUnits="userSpaceOnUse" gradientTransform="translate(110.04 17723.5) rotate(90) scale(5.93512 7.68969)">
<stop stop-color="#DFB995"/>
<stop offset="0.44" stop-color="#EBC9A8"/>
<stop offset="1" stop-color="#F8DBBD"/>
</radialGradient>
<radialGradient id="paint8_radial" cx="0" cy="0" r="1" gradientUnits="userSpaceOnUse" gradientTransform="translate(11992 306.771) rotate(43.1267) scale(2.63519 5.27058)">
<stop stop-color="#D66F27"/>
<stop offset="0.22" stop-color="#E57C25"/>
<stop offset="0.38" stop-color="#F68622"/>
</radialGradient>
<linearGradient id="paint9_linear" x1="251.833" y1="22.4848" x2="255.955" y2="22.4848" gradientUnits="userSpaceOnUse">
<stop stop-color="#E68866"/>
<stop offset="0.26" stop-color="#E58460"/>
<stop offset="0.59" stop-color="#E47850"/>
<stop offset="0.97" stop-color="#E16435"/>
<stop offset="1" stop-color="#E16233"/>
</linearGradient>
<linearGradient id="paint10_linear" x1="208.536" y1="28.1993" x2="208.102" y2="32.2481" gradientUnits="userSpaceOnUse">
<stop stop-color="#BE8F67"/>
<stop offset="1" stop-color="#DFB995"/>
</linearGradient>
<radialGradient id="paint11_radial" cx="0" cy="0" r="1" gradientUnits="userSpaceOnUse" gradientTransform="translate(207.469 24.8908) scale(2.88168 2.85458)">
<stop stop-color="#9A6642" stop-opacity="0.85"/>
<stop offset="0.12" stop-color="#A77652" stop-opacity="0.88"/>
<stop offset="0.37" stop-color="#BF936F" stop-opacity="0.93"/>
<stop offset="0.61" stop-color="#D1A884" stop-opacity="0.97"/>
<stop offset="0.82" stop-color="#DBB591" stop-opacity="0.99"/>
<stop offset="1" stop-color="#DFB995"/>
</radialGradient>
<radialGradient id="paint12_radial" cx="0" cy="0" r="1" gradientUnits="userSpaceOnUse" gradientTransform="translate(242.381 133.249) rotate(180) scale(33.5031 33.5232)">
<stop offset="0.56" stop-color="#C8C5C4"/>
<stop offset="1" stop-color="#E1DFDD"/>
</radialGradient>
<radialGradient id="paint13_radial" cx="0" cy="0" r="1" gradientUnits="userSpaceOnUse" gradientTransform="translate(2502.11 7868.09) scale(517.393 2009.75)">
<stop offset="0.56" stop-color="#C8C5C4"/>
<stop offset="1" stop-color="#E1DFDD"/>
</radialGradient>
<linearGradient id="paint14_linear" x1="234.866" y1="80.2362" x2="233.794" y2="93.0822" gradientUnits="userSpaceOnUse">
<stop stop-color="#9B653D"/>
<stop offset="1" stop-color="#BE8F67"/>
</linearGradient>
<radialGradient id="paint15_radial" cx="0" cy="0" r="1" gradientUnits="userSpaceOnUse" gradientTransform="translate(234.31 79.5669) scale(3.77788 3.74234)">
<stop stop-color="#956E4F" stop-opacity="0.88"/>
<stop offset="0.94" stop-color="#A7754C" stop-opacity="0"/>
</radialGradient>
<radialGradient id="paint16_radial" cx="0" cy="0" r="1" gradientUnits="userSpaceOnUse" gradientTransform="translate(29.0859 86.6663) rotate(-168.459) scale(18.9382 18.9487)">
<stop stop-color="#8DB996"/>
<stop offset="0.5" stop-color="#E1DFDD"/>
</radialGradient>
<radialGradient id="paint17_radial" cx="0" cy="0" r="1" gradientUnits="userSpaceOnUse" gradientTransform="translate(-6694.58 -16074.5) rotate(-12.1018) scale(371.809 1083.21)">
<stop stop-color="#8DB996"/>
<stop offset="0.5" stop-color="#E1DFDD"/>
</radialGradient>
<radialGradient id="paint18_radial" cx="0" cy="0" r="1" gradientUnits="userSpaceOnUse" gradientTransform="translate(27.0966 63.9799) rotate(90) scale(3.89339 5.63747)">
<stop stop-color="#9A6642"/>
<stop offset="1" stop-color="#BD8F6B"/>
</radialGradient>
<radialGradient id="paint19_radial" cx="0" cy="0" r="1" gradientUnits="userSpaceOnUse" gradientTransform="translate(26.9742 56.3876) scale(3.09692 3.06779)">
<stop stop-color="#956E4F" stop-opacity="0.88"/>
<stop offset="0.94" stop-color="#A7754C" stop-opacity="0"/>
</radialGradient>
</defs>
</svg>
